<svg width="2957" height="601" viewBox="0 0 2957 601" fill="none" xmlns="http://www.w3.org/2000/svg">
<path fill-rule="evenodd" clip-rule="evenodd" d="M146.491 54.1916C-45.2644 146.599 -49.8116 443.484 139.021 541.857C161.088 553.353 161.906 553.068 155.167 536.221C134.857 485.445 118.027 397.374 129.557 402.21C204.394 433.591 291.709 434.51 361.851 404.653C381.829 396.15 374.186 457.559 345.837 533.32C338.27 553.54 338.509 553.707 359.343 542.71C549.262 442.466 546.169 147.181 354.231 54.6248C339.271 47.412 338.224 48.2451 344.242 62.5793C354.396 86.7576 366.868 135.006 372.901 173.446C377.388 202.037 377.249 202.49 365.651 196.98C300.343 165.96 205.964 165.978 131.277 197.025C118.279 202.428 131.457 126.845 154.032 66.5152C161.156 47.4762 160.99 47.2047 146.491 54.1916ZM288.41 239.513C406.01 256.52 423.239 327.568 316.377 354.837C213.965 380.969 89.9036 340.185 112.59 287.845C128.047 252.183 213.531 228.684 288.41 239.513Z" fill="#FCFCF9"/>
<path d="M555 495H616V320.5H808.5V495H870V107H808.5V266.5H616V107H555V495ZM925.453 600.5H1031.95L1168.95 212.5H1112.95L1036.45 430L959.453 212.5H903.453L1007.45 506L991.453 549.5H925.453V600.5ZM1196.43 600.5H1253.43V472.5C1273.43 490 1300.93 500 1331.43 500C1420.93 500 1457.93 433.5 1457.93 353C1457.93 272.5 1420.43 207.5 1332.43 207.5C1300.93 207.5 1272.93 217 1253.43 235.5V212.5H1196.43V600.5ZM1253.43 439V268H1397.43V439H1253.43ZM1617.75 501C1692.75 501 1734.25 460.5 1748.75 404.5H1696.75V442.5H1538.75V371.5H1754.25C1754.75 366 1755.25 360 1755.25 354C1755.25 273.5 1714.25 207 1617.75 207C1521.75 207 1480.75 273.5 1480.75 354C1480.75 434.5 1521.75 501 1617.75 501ZM1538.75 327.5V266H1696.75V327.5H1538.75ZM1790.62 212.5V495H1847.62V263.5H1939.62V212.5H1790.62ZM1990.01 495H2050.01V343.5H2148.01C2246.51 343.5 2285.51 293 2285.51 228C2285.51 163 2249.51 107 2157.01 107H1990.01V495ZM2050.01 290V163H2220.01V290H2050.01ZM2319.38 495H2376.38V107H2319.38V495ZM2514.29 499C2539.79 499.5 2582.29 493.5 2600.29 474V495H2656.79V212.5H2425.79V263.5H2600.29V330C2579.29 314 2545.79 310 2513.79 310C2454.29 310 2411.79 338.5 2411.79 404.5C2412.79 464.5 2453.29 499 2514.29 499ZM2464.79 446.5V362H2600.29V446.5H2464.79ZM2709.96 600.5H2816.46L2953.46 212.5H2897.46L2820.96 430L2743.96 212.5H2687.96L2791.96 506L2775.96 549.5H2709.96V600.5Z" fill="#FCFCF9"/>
</svg>
