<svg width="500" height="500" viewBox="0 0 500 500" fill="none" xmlns="http://www.w3.org/2000/svg">
<path fill-rule="evenodd" clip-rule="evenodd" d="M146.491 4.19156C-45.2644 96.5985 -49.8116 393.484 139.021 491.857C161.088 503.353 161.906 503.068 155.167 486.221C134.857 435.445 118.027 347.374 129.557 352.21C204.394 383.591 291.709 384.51 361.851 354.653C381.829 346.15 374.186 407.559 345.837 483.32C338.27 503.54 338.509 503.707 359.343 492.71C549.262 392.466 546.169 97.1811 354.231 4.62476C339.271 -2.58799 338.224 -1.7549 344.242 12.5793C354.396 36.7576 366.868 85.0055 372.901 123.446C377.388 152.037 377.249 152.49 365.651 146.98C300.343 115.96 205.964 115.978 131.277 147.025C118.279 152.428 131.457 76.8449 154.032 16.5152C161.156 -2.52381 160.99 -2.79534 146.491 4.19156ZM288.41 189.513C406.01 206.52 423.239 277.568 316.377 304.837C213.965 330.969 89.9036 290.185 112.59 237.845C128.047 202.183 213.531 178.684 288.41 189.513Z" fill="#0C0B0F"/>
</svg>
